<svg height="10.252613mm" viewBox="0 0 18.190117 10.252613" width="18.190117mm" xmlns="http://www.w3.org/2000/svg"><path d="m175.11198 326.85686v-3.125q2.58334 0 3.58334-1.04167 1.02083-1.0625 1.02083-3.4375v-4.08333q0-2.52084.60417-4.14584.625-1.625 1.83333-2.54167 1.22917-.91667 2.97917-1.29167 1.77084-.375 4.02084-.375v4.16667q-2.5625 0-3.45834 1.04167-.875 1.04167-.875 3.54167v5.20834q0 1.16666-.39583 2.27083-.39584 1.08334-1.4375 1.95834-1.04167.85416-2.95834 1.35416-1.89583.5-4.91667.5zm14.04168 18.70835q-2.25 0-4.02084-.375-1.75-.375-2.97917-1.29167-1.20833-.89583-1.83333-2.52083-.60417-1.64584-.60417-4.16667v-4.04167q0-2.39584-1.02083-3.45834-1-1.0625-3.58334-1.0625v-3.125q3.02084 0 4.91667.52083 1.91667.5 2.95834 1.375 1.04166.87501 1.4375 1.97917.39583 1.08334.39583 2.25v5.16668q0 2.5.875 3.54166.89584 1.04167 3.45834 1.04167zm-14.04168-16.91668v-4.91667h5.02084v4.91667zm18.14585 13.06251v-31.04169h7.91667l6.04167 16.31251q.3125.89584.70833 2.16667.41667 1.27084.85417 2.66667.4375 1.39584.8125 2.64584.39584 1.25.625 2.08333h-1.35416q.22916-.83333.60416-2.08333.375-1.25.8125-2.64584.4375-1.39583.83334-2.66667.41666-1.27083.70833-2.16667l5.93751-16.31251h7.95833v31.04169h-5.41667v-15.83334q0-1.02084.0208-2.35417.0208-1.35417.0625-2.83334.0625-1.5.0833-3.02083.0417-1.54167.0625-2.9375h.6875q-.5 1.58333-1 3.20833-.5 1.60417-.97917 3.10417-.47916 1.47917-.89583 2.72917-.39583 1.22917-.6875 2.10417l-5.91667 15.83334h-4.49994l-5.95833-15.83334q-.29167-.875-.72917-2.10417-.41667-1.25-.89583-2.72917-.47917-1.5-1.00001-3.10417-.52083-1.625-1.04166-3.20833h.83333q.0417 1.39583.0625 2.9375.0417 1.52083.0833 3.02083.0417 1.47917.0625 2.83334.0208 1.33333.0208 2.35417v15.83334zm50.6042-14.85418q-3.02084 0-4.9375-.5-1.89584-.5-2.93751-1.35416-1.04166-.875-1.45833-1.95834-.39583-1.10417-.39583-2.27083v-5.20834q0-2.5-.875-3.54167-.87501-1.04167-3.45834-1.04167v-4.16667q2.27083 0 4.02084.375 1.77083.375 2.97916 1.29167 1.20834.91667 1.83334 2.54167.625 1.625.625 4.14584v4.08333q0 2.375 1 3.4375 1.02083 1.04167 3.60417 1.04167zm-14.06251 18.70835v-4.16667q2.58333 0 3.45834-1.04167.875-1.04166.875-3.54166v-5.16668q0-1.16666.39583-2.25.41667-1.10416 1.45833-1.97917 1.04167-.875 2.93751-1.375 1.91666-.52083 4.9375-.52083v3.125q-2.58334 0-3.60417 1.0625-1 1.0625-1 3.45834v4.04167q0 2.52083-.625 4.16667-.625 1.625-1.83334 2.52083-1.20833.91667-2.97916 1.29167-1.75001.375-4.02084.375zm14.06251-16.91668h-5.02084v-4.91667h5.02084z" transform="matrix(.26458333 0 0 .26458333 -46.331709 -81.178186)"/></svg>