<?xml version="1.0" encoding="UTF-8" standalone="no"?>
<!-- Created with Inkscape (http://www.inkscape.org/) -->

<svg
   width="18.190117mm"
   height="10.252613mm"
   viewBox="0 0 18.190117 10.252613"
   version="1.1"
   id="svg1"
   xmlns:inkscape="http://www.inkscape.org/namespaces/inkscape"
   xmlns:sodipodi="http://sodipodi.sourceforge.net/DTD/sodipodi-0.dtd"
   xmlns="http://www.w3.org/2000/svg"
   xmlns:svg="http://www.w3.org/2000/svg">
  <sodipodi:namedview
     id="namedview1"
     pagecolor="#ffffff"
     bordercolor="#000000"
     borderopacity="0.25"
     inkscape:showpageshadow="2"
     inkscape:pageopacity="0.0"
     inkscape:pagecheckerboard="0"
     inkscape:deskcolor="#d1d1d1"
     inkscape:document-units="mm">
    <inkscape:page
       x="0"
       y="0"
       width="18.190117"
       height="10.252613"
       id="page2"
       margin="0"
       bleed="0" />
  </sodipodi:namedview>
  <defs
     id="defs1" />
  <g
     inkscape:label="Ebene 1"
     inkscape:groupmode="layer"
     id="layer1"
     transform="translate(-46.331709,-81.178186)">
    <path
       style="font-weight:600;font-size:42.6667px;font-family:inter;-inkscape-font-specification:'inter Semi-Bold';white-space:pre"
       d="m 175.11198,326.85686 v -3.125 q 2.58334,0 3.58334,-1.04167 1.02083,-1.0625 1.02083,-3.4375 v -4.08333 q 0,-2.52084 0.60417,-4.14584 0.625,-1.625 1.83333,-2.54167 1.22917,-0.91667 2.97917,-1.29167 1.77084,-0.375 4.02084,-0.375 v 4.16667 q -2.5625,0 -3.45834,1.04167 -0.875,1.04167 -0.875,3.54167 v 5.20834 q 0,1.16666 -0.39583,2.27083 -0.39584,1.08334 -1.4375,1.95834 -1.04167,0.85416 -2.95834,1.35416 -1.89583,0.5 -4.91667,0.5 z m 14.04168,18.70835 q -2.25,0 -4.02084,-0.375 -1.75,-0.375 -2.97917,-1.29167 -1.20833,-0.89583 -1.83333,-2.52083 -0.60417,-1.64584 -0.60417,-4.16667 v -4.04167 q 0,-2.39584 -1.02083,-3.45834 -1,-1.0625 -3.58334,-1.0625 v -3.125 q 3.02084,0 4.91667,0.52083 1.91667,0.5 2.95834,1.375 1.04166,0.87501 1.4375,1.97917 0.39583,1.08334 0.39583,2.25 v 5.16668 q 0,2.5 0.875,3.54166 0.89584,1.04167 3.45834,1.04167 z m -14.04168,-16.91668 v -4.91667 h 5.02084 v 4.91667 z m 18.14585,13.06251 v -31.04169 h 7.91667 l 6.04167,16.31251 q 0.3125,0.89584 0.70833,2.16667 0.41667,1.27084 0.85417,2.66667 0.4375,1.39584 0.8125,2.64584 0.39584,1.25 0.625,2.08333 h -1.35416 q 0.22916,-0.83333 0.60416,-2.08333 0.375,-1.25 0.8125,-2.64584 0.4375,-1.39583 0.83334,-2.66667 0.41666,-1.27083 0.70833,-2.16667 l 5.93751,-16.31251 h 7.95833 v 31.04169 h -5.41667 V 325.8777 q 0,-1.02084 0.0208,-2.35417 0.0208,-1.35417 0.0625,-2.83334 0.0625,-1.5 0.0833,-3.02083 0.0417,-1.54167 0.0625,-2.9375 h 0.6875 q -0.5,1.58333 -1,3.20833 -0.5,1.60417 -0.97917,3.10417 -0.47916,1.47917 -0.89583,2.72917 -0.39583,1.22917 -0.6875,2.10417 l -5.91667,15.83334 H 207.237 l -5.95833,-15.83334 q -0.29167,-0.875 -0.72917,-2.10417 -0.41667,-1.25 -0.89583,-2.72917 -0.47917,-1.5 -1.00001,-3.10417 -0.52083,-1.625 -1.04166,-3.20833 h 0.83333 q 0.0417,1.39583 0.0625,2.9375 0.0417,1.52083 0.0833,3.02083 0.0417,1.47917 0.0625,2.83334 0.0208,1.33333 0.0208,2.35417 v 15.83334 z m 50.6042,-14.85418 q -3.02084,0 -4.9375,-0.5 -1.89584,-0.5 -2.93751,-1.35416 -1.04166,-0.875 -1.45833,-1.95834 -0.39583,-1.10417 -0.39583,-2.27083 v -5.20834 q 0,-2.5 -0.875,-3.54167 -0.87501,-1.04167 -3.45834,-1.04167 v -4.16667 q 2.27083,0 4.02084,0.375 1.77083,0.375 2.97916,1.29167 1.20834,0.91667 1.83334,2.54167 0.625,1.625 0.625,4.14584 v 4.08333 q 0,2.375 1,3.4375 1.02083,1.04167 3.60417,1.04167 z m -14.06251,18.70835 v -4.16667 q 2.58333,0 3.45834,-1.04167 0.875,-1.04166 0.875,-3.54166 v -5.16668 q 0,-1.16666 0.39583,-2.25 0.41667,-1.10416 1.45833,-1.97917 1.04167,-0.875 2.93751,-1.375 1.91666,-0.52083 4.9375,-0.52083 v 3.125 q -2.58334,0 -3.60417,1.0625 -1,1.0625 -1,3.45834 v 4.04167 q 0,2.52083 -0.625,4.16667 -0.625,1.625 -1.83334,2.52083 -1.20833,0.91667 -2.97916,1.29167 -1.75001,0.375 -4.02084,0.375 z m 14.06251,-16.91668 h -5.02084 v -4.91667 h 5.02084 z"
       id="text1"
       transform="scale(0.26458333)"
       aria-label="{M}"
       inkscape:export-filename="tab_logo.svg"
       inkscape:export-xdpi="96"
       inkscape:export-ydpi="96" />
  </g>
</svg>
